<svg width="166" height="50" viewBox="0 0 166 50" fill="none" xmlns="http://www.w3.org/2000/svg">
<g clip-path="url(#clip0_3005_4058)">
<path d="M79.3684 17.337C81.1462 17.3186 82.8593 18.0008 84.1339 19.2351L84.5733 19.6726L86.6259 17.7016L86.1494 17.2641C84.3321 15.4818 81.8821 14.4852 79.3313 14.491C78.0597 14.4287 76.7891 14.6309 75.6004 15.0848C74.4117 15.5387 73.3311 16.2343 72.4275 17.1272C71.5238 18.0202 70.817 19.0908 70.352 20.2709C69.8871 21.451 69.6743 22.7146 69.7271 23.9812C69.6866 25.2445 69.9079 26.5027 70.3772 27.6772C70.8465 28.8517 71.5537 29.9173 72.4547 30.8077C73.3558 31.6981 74.4314 32.3941 75.6145 32.8524C76.7976 33.3106 78.0628 33.5213 79.3313 33.4713C81.8821 33.4771 84.3321 32.4806 86.1494 30.6982L86.5888 30.2607L84.5362 28.2168L84.0967 28.6543C82.8418 29.9049 81.1428 30.613 79.3674 30.6253C78.483 30.6748 77.598 30.5379 76.7704 30.2233C75.9428 29.9088 75.1912 29.4239 74.5648 28.8002C73.9384 28.1765 73.4514 27.4281 73.1355 26.604C72.8197 25.78 72.6821 24.8988 72.7319 24.0181C72.6586 19.383 76.0326 17.3422 79.3674 17.3422" fill="white"/>
<path d="M103.598 17.0829C102.842 16.2786 101.932 15.6332 100.922 15.1848C99.7076 14.6524 98.3946 14.3789 97.0675 14.3817C95.8078 14.357 94.5563 14.5872 93.3885 15.0582C92.2208 15.5293 91.1613 16.2314 90.2741 17.1221C89.3869 18.0128 88.6905 19.0736 88.227 20.2401C87.7635 21.4067 87.5427 22.6548 87.5778 23.9088C87.5382 25.1674 87.7554 26.4209 88.2163 27.5935C88.6773 28.7662 89.3723 29.8335 90.2594 30.7309C91.1466 31.6284 92.2073 32.3373 93.3775 32.8147C94.5477 33.2922 95.803 33.5283 97.0675 33.5088C98.3707 33.525 99.661 33.2506 100.844 32.7057C101.871 32.2352 102.793 31.5651 103.557 30.7347V33.1771H106.562V14.5645H103.566V17.0829H103.598ZM97.1459 30.5889C96.2733 30.6065 95.4065 30.4453 94.5991 30.1153C93.7918 29.7853 93.0612 29.2935 92.4528 28.6705C91.8443 28.0475 91.371 27.3066 91.0622 26.4939C90.7535 25.6811 90.6158 24.8138 90.6579 23.9458C90.6497 23.081 90.814 22.2232 91.1413 21.4222C91.4686 20.6211 91.9523 19.8927 92.5644 19.2792C93.1766 18.6657 93.9049 18.1793 94.7072 17.8482C95.5096 17.517 96.3699 17.3478 97.2384 17.3502C98.1069 17.3527 98.9663 17.5268 99.7668 17.8624C100.567 18.1981 101.293 18.6886 101.901 19.3055C102.51 19.9225 102.99 20.6536 103.312 21.4565C103.635 22.2593 103.794 23.118 103.781 23.9827C103.808 25.653 103.221 27.2754 102.131 28.545C101.49 29.2146 100.716 29.7426 99.8567 30.0948C98.9979 30.4469 98.0743 30.6152 97.1459 30.5889Z" fill="white"/>
<path d="M122.658 23.7642C121.117 23.0534 119.47 22.5972 117.782 22.4136L117.163 22.3037C114.707 21.8661 112.655 21.3916 112.618 19.7853C112.604 19.285 112.789 18.7996 113.133 18.4347C114.253 17.5509 115.667 17.1207 117.092 17.2299H117.239C118.146 17.1654 119.057 17.2806 119.919 17.5688C120.781 17.8571 121.577 18.3126 122.261 18.9092L122.737 19.3108L124.644 17.2669L124.167 16.8294C122.27 15.1358 119.784 14.2453 117.239 14.3469H117.092C114.877 14.2361 112.702 14.9666 111.006 16.3908C110.552 16.8364 110.196 17.3721 109.962 17.9632C109.729 18.5543 109.622 19.1876 109.65 19.8223C109.627 20.656 109.851 21.4781 110.294 22.1857C110.738 22.8934 111.381 23.4553 112.143 23.8011C113.675 24.4591 115.291 24.9012 116.946 25.1148C119.989 25.5893 122.152 26.1007 122.078 27.9258C121.968 30.3713 118.705 30.627 117.276 30.627C116.156 30.6813 115.039 30.4678 114.018 30.0043C112.998 29.5408 112.104 28.8408 111.411 27.9628L111.007 27.3784L108.801 29.3494L109.094 29.8239C110.634 32.1964 113.676 33.584 117.268 33.584C118.808 33.5965 120.337 33.3242 121.777 32.7808C122.661 32.4327 123.442 31.8674 124.046 31.1375C124.716 30.2826 125.079 29.2289 125.078 28.1446C125.13 27.2042 124.916 26.2681 124.459 25.4434C124.032 24.726 123.409 24.1438 122.663 23.7642" fill="white"/>
<path d="M137.872 30.0039C137.119 30.3856 136.295 30.6093 135.452 30.6612C133.509 30.6612 132.886 29.8581 132.886 27.3027V17.3401H138.824V14.6389H132.886V7.33643H129.916V14.6369H126.216V17.338H129.918V27.3006C129.783 28.9706 130.265 30.6323 131.275 31.9728C131.816 32.5195 132.47 32.943 133.191 33.2139C133.912 33.4848 134.684 33.5968 135.453 33.5422C136.696 33.5066 137.914 33.1816 139.009 32.5931L139.558 32.3374L138.459 29.782L137.872 30.0039Z" fill="white"/>
<path d="M144.541 7.33643H141.535V33.2525H144.541V7.33643Z" fill="white"/>
<path d="M163.75 17.156C162.825 16.2083 161.71 15.465 160.478 14.9745C159.245 14.484 157.923 14.2572 156.597 14.309C155.332 14.2895 154.077 14.5256 152.907 15.0031C151.737 15.4805 150.676 16.1895 149.789 17.0869C148.902 17.9843 148.207 19.0516 147.746 20.2243C147.285 21.3969 147.068 22.6504 147.107 23.909C147.09 25.231 147.327 26.5441 147.804 27.778C148.226 28.915 148.888 29.9483 149.747 30.8079C150.601 31.6647 151.625 32.3359 152.753 32.7788C154.794 33.545 157.02 33.6797 159.139 33.1651C161.258 32.6505 163.172 31.5106 164.63 29.8948L164.996 29.3813L162.76 27.5931L162.357 28.1067C161.614 28.8865 160.714 29.501 159.716 29.9099C158.718 30.3188 157.644 30.5128 156.565 30.4792C155.056 30.5357 153.578 30.0452 152.405 29.0987C151.232 28.1522 150.443 26.814 150.186 25.3325H165.803L165.876 24.7481C166.095 23.4049 166.018 22.0302 165.651 20.7194C165.284 19.4085 164.636 18.1927 163.75 17.156ZM156.675 17.193C160.452 17.193 162.797 19.1639 163.054 22.5954H150.297C150.494 21.0661 151.257 19.6651 152.437 18.666C153.616 17.667 155.128 17.1418 156.675 17.193Z" fill="white"/>
<path d="M16.3129 15.2588L20.1294 28.2903L24.1574 15.2588H28.9228L22.8371 32.6697H17.8529L16.0571 27.56L14.4408 21.756L11.14 32.6697H6.08576L0 15.2588H4.80259L8.76143 28.2892L12.5738 15.2588H16.3129Z" fill="#239A48"/>
<path d="M33.1432 25.4776C33.4361 27.6345 35.3093 29.1638 38.3491 29.1638C40.0426 29.1922 41.6915 28.6232 43.0042 27.5574L45.7531 30.2586C43.7195 32.1237 41.039 33.1314 38.2748 33.0697C32.2633 33.0697 28.7068 29.3836 28.7068 23.8353C28.7068 18.5788 32.2994 14.7827 37.9448 14.7827C43.7737 14.7827 47.4024 18.36 46.7423 25.5146L33.1432 25.4776ZM42.6009 21.9373C42.3079 19.6777 40.5482 18.5788 38.0923 18.5788C37.0152 18.4925 35.9413 18.7798 35.0526 19.3919C34.1639 20.004 33.5152 20.9033 33.2164 21.9373H42.6009Z" fill="#239A48"/>
<path d="M63.3086 4.30754L66.1679 0H54.2543V8.5781H66.1679L63.3086 4.30754Z" fill="#239A48"/>
<path d="M52.9364 0H48.6475V24.1639C48.6715 25.6743 49.0563 27.1573 49.7702 28.4902C50.4841 29.8231 51.5065 30.9676 52.7528 31.829C54.3589 32.9381 56.2651 33.5361 58.2196 33.5442C59.9605 33.5345 61.6681 33.0687 63.1708 32.1936C65.2504 30.9263 66.7666 28.9172 67.4104 26.5756C68.0542 24.234 67.7771 21.736 66.6356 19.5907C65.4941 17.4455 63.5741 15.8143 61.2668 15.0295C58.9595 14.2447 56.4385 14.3654 54.2175 15.367V20.5866C54.7103 20.023 55.319 19.5713 56.0024 19.2623C56.6858 18.9533 57.4278 18.794 58.1784 18.7954C58.9771 18.7923 59.7663 18.9678 60.4879 19.3089C60.94 19.5114 61.3503 19.796 61.6978 20.1481C62.3448 20.7317 62.8351 21.4669 63.1243 22.287C63.4135 23.1071 63.4925 23.9862 63.354 24.8444C63.2155 25.7026 62.8639 26.5128 62.3312 27.2015C61.7985 27.8901 61.1015 28.4353 60.3035 28.7877C59.5055 29.1401 58.6318 29.2885 57.7616 29.2194C56.8914 29.1503 56.0523 28.8659 55.3205 28.392C54.5887 27.9181 53.9873 27.2697 53.571 26.5057C53.1546 25.7417 52.9365 24.8863 52.9364 24.017V0Z" fill="#239A48"/>
<path d="M24.7534 44.5995H22.6904V44.2041H27.2517V44.5995H25.1887V49.892H24.7534C24.7926 49.891 24.7926 44.5995 24.7534 44.5995Z" fill="white" stroke="white" stroke-width="0.4"/>
<path d="M32.2465 49.891V47.2853H28.5971V49.892H28.1608V44.2041H28.5971V46.9289H32.2465V44.2041H32.6828V49.891H32.2465Z" fill="white" stroke="white" stroke-width="0.4"/>
<path d="M33.9138 49.891V44.2041H34.35V49.891H33.9138Z" fill="white" stroke="white" stroke-width="0.4"/>
<path d="M35.779 44.2041L39.6264 48.904V44.2041H40.0627V49.891H39.9039L36.0564 45.1911V49.891H35.6201V44.2041H35.779Z" fill="white" stroke="white" stroke-width="0.4"/>
<path d="M45.4185 49.891H44.8636L41.8485 47.0871V49.891H41.4122V44.2041H41.8485V46.8108L44.6253 44.2041H45.141V44.2431L42.2457 46.9289L45.4185 49.891Z" fill="white" stroke="white" stroke-width="0.4"/>
<path d="M68.1901 45.7447C68.192 46.0196 68.1041 46.2877 67.9396 46.5086C67.7751 46.7294 67.543 46.891 67.2782 46.969C67.5964 47.048 67.8787 47.231 68.0801 47.4887C68.2815 47.7464 68.3903 48.0639 68.3891 48.3905C68.3891 49.5757 67.2782 49.891 66.3262 49.891H63.9857V44.2041H66.3262C67.238 44.2041 68.1901 44.6776 68.1901 45.7447ZM64.422 46.7718H66.3653C67.0399 46.7718 67.7537 46.5746 67.7537 45.7447C67.7537 44.9148 66.9997 44.5595 66.2859 44.5595H64.3818V46.7718H64.422ZM64.422 49.4576H66.3262C67.0399 49.4576 67.9528 49.2994 67.9528 48.3915C67.9528 47.5226 67.1194 47.2062 66.3664 47.2062H64.4231L64.422 49.4576Z" fill="white" stroke="white" stroke-width="0.4"/>
<path d="M73.7812 44.2041V47.7588C73.7902 48.0497 73.7404 48.3394 73.6348 48.6108C73.5292 48.8821 73.37 49.1296 73.1665 49.3385C72.963 49.5475 72.7195 49.7136 72.4503 49.827C72.1812 49.9404 71.8919 49.9989 71.5996 49.9989C71.3073 49.9989 71.018 49.9404 70.7489 49.827C70.4797 49.7136 70.2362 49.5475 70.0327 49.3385C69.8293 49.1296 69.67 48.8821 69.5644 48.6108C69.4588 48.3394 69.409 48.0497 69.418 47.7588V44.2041H69.8543V47.7588C69.8428 47.9967 69.8799 48.2345 69.9633 48.4577C70.0468 48.681 70.175 48.885 70.34 49.0574C70.505 49.2299 70.7035 49.3672 70.9234 49.461C71.1433 49.5548 71.38 49.6032 71.6192 49.6032C71.8584 49.6032 72.0952 49.5548 72.3151 49.461C72.535 49.3672 72.7334 49.2299 72.8984 49.0574C73.0635 48.885 73.1916 48.681 73.2751 48.4577C73.3585 48.2345 73.3956 47.9967 73.3841 47.7588V44.2041H73.7812Z" fill="white" stroke="white" stroke-width="0.4"/>
<path d="M75.0432 49.891V44.2041H75.4794V49.891H75.0432Z" fill="white" stroke="white" stroke-width="0.4"/>
<path d="M77.1567 44.2041V49.4966H80.3697V49.9311H76.7203V44.2442L77.1567 44.2041Z" fill="white" stroke="white" stroke-width="0.4"/>
<path d="M86.0347 46.9698C86.0615 47.357 86.0053 47.7455 85.8698 48.1095C85.7343 48.4735 85.5226 48.8046 85.2488 49.0809C84.975 49.3573 84.6453 49.5724 84.2817 49.7122C83.918 49.852 83.5286 49.9133 83.1394 49.8918H81.196V44.2049H83.1394C83.5144 44.1867 83.8892 44.2449 84.2409 44.3759C84.5926 44.5069 84.9138 44.7079 85.1848 44.9667C85.4558 45.2255 85.6709 45.5366 85.8171 45.881C85.9632 46.2254 86.0373 46.5959 86.0347 46.9698ZM81.5921 44.6003V49.4584H83.0991C83.7461 49.4584 84.3666 49.2025 84.8241 48.7469C85.2816 48.2914 85.5386 47.6736 85.5386 47.0294C85.5386 46.3851 85.2816 45.7673 84.8241 45.3118C84.3666 44.8562 83.7461 44.6003 83.0991 44.6003H81.5921Z" fill="white" stroke="white" stroke-width="0.4"/>
<path d="M109.719 49.1024C109.157 49.6519 108.404 49.9634 107.617 49.9713C107.228 49.9973 106.838 49.9409 106.473 49.8057C106.107 49.6706 105.775 49.4598 105.497 49.1873C105.22 48.9149 105.004 48.5869 104.863 48.2251C104.722 47.8632 104.66 47.4758 104.681 47.0883C104.658 46.6968 104.718 46.3049 104.857 45.9379C104.996 45.571 105.211 45.2371 105.488 44.958C105.765 44.6788 106.097 44.4606 106.464 44.3173C106.83 44.174 107.223 44.109 107.617 44.1263C108.007 44.1248 108.394 44.2009 108.755 44.3501C109.116 44.4993 109.444 44.7186 109.719 44.9952L109.401 45.2715C108.922 44.8119 108.281 44.5569 107.615 44.5607C106.956 44.574 106.329 44.844 105.867 45.3128C105.406 45.7817 105.148 46.4119 105.148 47.0683C105.148 47.7247 105.406 48.355 105.867 48.8238C106.329 49.2926 106.956 49.5626 107.615 49.5759C108.281 49.5798 108.922 49.3247 109.401 48.8652L109.719 49.1024Z" fill="white" stroke="white" stroke-width="0.4"/>
<path d="M116.256 47.0505C116.279 47.4368 116.22 47.8237 116.083 48.186C115.946 48.5482 115.734 48.8778 115.461 49.1533C115.188 49.4288 114.86 49.6441 114.498 49.7852C114.136 49.9264 113.748 49.9902 113.36 49.9725C112.97 49.9824 112.583 49.9119 112.222 49.7655C111.861 49.6191 111.534 49.3999 111.262 49.1217C110.99 48.8436 110.779 48.5124 110.642 48.1491C110.505 47.7857 110.444 47.3981 110.465 47.0104C110.439 46.6233 110.495 46.2351 110.631 45.8714C110.767 45.5078 110.979 45.1769 111.252 44.9007C111.526 44.6246 111.855 44.4094 112.219 44.2693C112.582 44.1293 112.971 44.0676 113.36 44.0884C113.751 44.0751 114.14 44.1432 114.503 44.2884C114.865 44.4336 115.193 44.6527 115.466 44.9316C115.739 45.2105 115.95 45.5431 116.086 45.908C116.222 46.2729 116.28 46.662 116.256 47.0505ZM110.901 47.0505C110.917 47.5314 111.074 47.9971 111.353 48.3896C111.633 48.782 112.022 49.0838 112.473 49.2573C112.924 49.4307 113.416 49.4682 113.888 49.3649C114.36 49.2617 114.791 49.0224 115.127 48.6768C115.463 48.3312 115.69 47.8947 115.778 47.4217C115.867 46.9487 115.814 46.4602 115.625 46.0172C115.437 45.5741 115.122 45.1961 114.719 44.9304C114.316 44.6646 113.843 44.5229 113.36 44.5229C113.028 44.5128 112.697 44.5719 112.389 44.6964C112.08 44.8209 111.802 45.0081 111.57 45.246C111.339 45.4839 111.16 45.7673 111.044 46.078C110.929 46.3887 110.88 46.7199 110.901 47.0505Z" fill="white" stroke="white" stroke-width="0.4"/>
<path d="M117.492 44.2041L121.34 48.904V44.2041H121.776V49.891H121.617L117.729 45.1911V49.891H117.294V44.2041H117.492Z" fill="white" stroke="white" stroke-width="0.4"/>
<path d="M123.245 44.2041L127.092 48.904V44.2041H127.529V49.891H127.37L123.522 45.1911V49.891H123.086V44.2041H123.245Z" fill="white" stroke="white" stroke-width="0.4"/>
<path d="M129.266 46.8108H132.597V47.2052H129.266V49.4566H132.876V49.891H128.829V44.2041H132.795V44.6386H129.266V46.8108Z" fill="white" stroke="white" stroke-width="0.4"/>
<path d="M138.591 49.1049C138.03 49.6544 137.276 49.9658 136.489 49.9738C136.1 49.9997 135.71 49.9433 135.345 49.8081C134.98 49.673 134.647 49.4622 134.37 49.1898C134.093 48.9173 133.876 48.5893 133.736 48.2275C133.595 47.8657 133.533 47.4783 133.553 47.0908C133.531 46.6992 133.591 46.3073 133.73 45.9404C133.869 45.5734 134.084 45.2396 134.36 44.9604C134.637 44.6813 134.969 44.463 135.336 44.3197C135.703 44.1765 136.096 44.1114 136.489 44.1287C136.88 44.1272 137.267 44.2033 137.628 44.3525C137.989 44.5017 138.316 44.721 138.591 44.9976L138.274 45.2739C137.794 44.8146 137.154 44.5596 136.489 44.5632C135.83 44.5764 135.202 44.8465 134.741 45.3153C134.28 45.7841 134.021 46.4144 134.021 47.0708C134.021 47.7272 134.28 48.3574 134.741 48.8262C135.202 49.295 135.83 49.5651 136.489 49.5784C137.154 49.5819 137.794 49.3269 138.274 48.8676L138.591 49.1049Z" fill="white" stroke="white" stroke-width="0.4"/>
<path d="M141.17 44.5995H139.107V44.2041H143.629V44.5995H141.566V49.892H141.13V44.5995H141.17Z" fill="white" stroke="white" stroke-width="0.4"/>
<path d="M54.5009 48.9848C55.5742 48.9848 56.4442 48.1184 56.4442 47.0497C56.4442 45.9811 55.5742 45.1147 54.5009 45.1147C53.4277 45.1147 52.5576 45.9811 52.5576 47.0497C52.5576 48.1184 53.4277 48.9848 54.5009 48.9848Z" fill="#239A48"/>
<path d="M95.5621 48.9848C96.6354 48.9848 97.5054 48.1184 97.5054 47.0497C97.5054 45.9811 96.6354 45.1147 95.5621 45.1147C94.4888 45.1147 93.6188 45.9811 93.6188 47.0497C93.6188 48.1184 94.4888 48.9848 95.5621 48.9848Z" fill="#239A48"/>
</g>
<defs>
<clipPath id="clip0_3005_4058">
<rect width="166" height="50" fill="white"/>
</clipPath>
</defs>
</svg>
