<svg width="67" height="56" viewBox="0 0 67 56" fill="none" xmlns="http://www.w3.org/2000/svg">
<path opacity="0.2" d="M23.2494 25.4548H14.2078C13.1314 25.4548 12.2162 25.0837 11.4627 24.3412C10.7096 23.5987 10.3325 22.6972 10.3325 21.6363V20.3641C10.3325 17.5533 11.3418 15.1539 13.3603 13.165C15.3786 11.1768 17.8141 10.1823 20.6663 10.1823H23.2494C23.949 10.1823 24.5542 9.93033 25.0657 9.42674C25.5769 8.92287 25.8325 8.32649 25.8325 7.63707V2.54569C25.8325 1.8564 25.5768 1.25947 25.0657 0.755599C24.5543 0.252424 23.9491 0 23.2494 0H20.6663C17.8675 0 15.1973 0.537445 12.6541 1.6108C10.1111 2.68486 7.91159 4.13671 6.05461 5.9665C4.19776 7.79546 2.72476 9.96293 1.63488 12.4689C0.545008 14.9746 0 17.6064 0 20.364V48.3633C0 50.4857 0.753115 52.2878 2.26005 53.7732C3.76713 55.2578 5.59739 56 7.75 56H23.2504C25.4029 56 27.2326 55.2578 28.7398 53.7732C30.2465 52.2878 31 50.4857 31 48.3633V33.0913C31 30.9694 30.2465 29.1673 28.7388 27.6818C27.2323 26.1973 25.4019 25.4548 23.2494 25.4548Z" fill="#239A48"/>
<path opacity="0.2" d="M64.741 27.6818C63.2344 26.1973 61.4044 25.4548 59.2513 25.4548H50.2094C49.1334 25.4548 48.2174 25.0837 47.4651 24.3412C46.7113 23.5987 46.3349 22.6972 46.3349 21.6363V20.3641C46.3349 17.5533 47.3442 15.1539 49.3618 13.165C51.3795 11.1768 53.815 10.1823 56.6688 10.1823H59.2514C59.9512 10.1823 60.5568 9.93033 61.068 9.42674C61.5788 8.92287 61.8354 8.32649 61.8354 7.63707V2.54569C61.8354 1.8564 61.5789 1.25947 61.068 0.755599C60.557 0.252424 59.9513 0 59.2514 0H56.6688C53.8683 0 51.1985 0.537445 48.6544 1.6108C46.1118 2.68486 43.9128 4.13671 42.0558 5.9665C40.1987 7.79546 38.7249 9.96293 37.6354 12.4689C36.5457 14.9746 36 17.6064 36 20.364V48.3633C36 50.4857 36.7539 52.2878 38.2604 53.7732C39.7672 55.2578 41.5971 56 43.7501 56H59.2505C61.4036 56 63.2334 55.2578 64.74 53.7732C66.2477 52.2878 67 50.4857 67 48.3633V33.0913C67.0001 30.9693 66.2477 29.1673 64.741 27.6818Z" fill="#239A48"/>
</svg>
